<svg xmlns="http://www.w3.org/2000/svg" width="29.045" height="29.045" viewBox="0 0 29.045 29.045">
  <path id="add_24dp_5F6368_FILL1_wght500_GRAD0_opsz48" d="M206.807-749.962H195.749a1.667,1.667,0,0,1-1.231-.5,1.685,1.685,0,0,1-.5-1.237,1.656,1.656,0,0,1,.5-1.228,1.683,1.683,0,0,1,1.231-.492h11.058v-11.058a1.687,1.687,0,0,1,.5-1.236,1.672,1.672,0,0,1,1.237-.506,1.644,1.644,0,0,1,1.228.506,1.7,1.7,0,0,1,.492,1.236v11.058h11.058a1.687,1.687,0,0,1,1.236.5,1.673,1.673,0,0,1,.506,1.237,1.644,1.644,0,0,1-.506,1.228,1.7,1.7,0,0,1-1.236.492H210.266V-738.9a1.667,1.667,0,0,1-.5,1.231,1.685,1.685,0,0,1-1.237.5,1.656,1.656,0,0,1-1.228-.5,1.683,1.683,0,0,1-.492-1.231Z" transform="translate(-194.02 766.22)" fill="#3f2317"/>
</svg>
