<svg xmlns="http://www.w3.org/2000/svg" width="20.811" height="21.5" viewBox="0 0 20.811 21.5">
  <g id="Group_37701" data-name="Group 37701" transform="translate(3564.752 -293.25)">
    <g id="Group_37336" data-name="Group 37336" transform="translate(-3769.822 -77.5)">
      <path id="Path_24790" data-name="Path 24790" d="M43.01,27.22v4.49c0,4.49,1.8,6.29,6.29,6.29h5.39c4.49,0,6.29-1.8,6.29-6.29V27.22" transform="translate(163.5 353.5)" fill="none" stroke="#000" stroke-linecap="round" stroke-linejoin="round" stroke-width="1.5"/>
      <path id="Path_24791" data-name="Path 24791" d="M52,28a2.965,2.965,0,0,0,3-3.32L54.34,18H49.67L49,24.68A2.965,2.965,0,0,0,52,28Z" transform="translate(163.5 353.5)" fill="none" stroke="#000" stroke-linecap="round" stroke-linejoin="round" stroke-width="1.5"/>
      <path id="Path_24792" data-name="Path 24792" d="M58.31,28a3.257,3.257,0,0,0,3.3-3.65l-.28-2.75C60.97,19,59.97,18,57.35,18H54.3l.7,7.01A3.408,3.408,0,0,0,58.31,28Z" transform="translate(163.5 353.5)" fill="none" stroke="#000" stroke-linecap="round" stroke-linejoin="round" stroke-width="1.5"/>
      <path id="Path_24793" data-name="Path 24793" d="M45.64,28a3.39,3.39,0,0,0,3.3-2.99l.22-2.21.48-4.8H46.59c-2.62,0-3.62,1-3.98,3.6l-.27,2.75A3.257,3.257,0,0,0,45.64,28Z" transform="translate(163.5 353.5)" fill="none" stroke="#000" stroke-linecap="round" stroke-linejoin="round" stroke-width="1.5"/>
      <path id="Path_24794" data-name="Path 24794" d="M52,33a2.207,2.207,0,0,0-2.5,2.5V38h5V35.5A2.207,2.207,0,0,0,52,33Z" transform="translate(163.5 353.5)" fill="none" stroke="#000" stroke-linecap="round" stroke-linejoin="round" stroke-width="1.5"/>
    </g>
  </g>
</svg>
