<svg xmlns="http://www.w3.org/2000/svg" width="19.5" height="21.5" viewBox="0 0 19.5 21.5">
  <g id="Group_37694" data-name="Group 37694" transform="translate(3903.25 -428.75)">
    <path id="Path_24835" data-name="Path 24835" d="M24,167v3" transform="translate(-3921.5 262.5)" fill="none" stroke="#404040" stroke-linecap="round" stroke-linejoin="round" stroke-miterlimit="10" stroke-width="1.5"/>
    <path id="Path_24836" data-name="Path 24836" d="M32,167v3" transform="translate(-3921.5 262.5)" fill="none" stroke="#404040" stroke-linecap="round" stroke-linejoin="round" stroke-miterlimit="10" stroke-width="1.5"/>
    <path id="Path_24837" data-name="Path 24837" d="M19.5,174.09h17" transform="translate(-3921.5 262.5)" fill="none" stroke="#404040" stroke-linecap="round" stroke-linejoin="round" stroke-miterlimit="10" stroke-width="1.5"/>
    <path id="Path_24838" data-name="Path 24838" d="M37,173.5V182c0,3-1.5,5-5,5H24c-3.5,0-5-2-5-5v-8.5c0-3,1.5-5,5-5h8C35.5,168.5,37,170.5,37,173.5Z" transform="translate(-3921.5 262.5)" fill="none" stroke="#404040" stroke-linecap="round" stroke-linejoin="round" stroke-miterlimit="10" stroke-width="1.5"/>
    <path id="Path_24839" data-name="Path 24839" d="M31.695,178.7H31.7" transform="translate(-3921.5 262.5)" fill="none" stroke="#404040" stroke-linecap="round" stroke-linejoin="round" stroke-width="2"/>
    <path id="Path_24840" data-name="Path 24840" d="M31.695,181.7H31.7" transform="translate(-3921.5 262.5)" fill="none" stroke="#404040" stroke-linecap="round" stroke-linejoin="round" stroke-width="2"/>
    <path id="Path_24841" data-name="Path 24841" d="M28,178.7H28" transform="translate(-3921.5 262.5)" fill="none" stroke="#404040" stroke-linecap="round" stroke-linejoin="round" stroke-width="2"/>
    <path id="Path_24842" data-name="Path 24842" d="M28,181.7H28" transform="translate(-3921.5 262.5)" fill="none" stroke="#404040" stroke-linecap="round" stroke-linejoin="round" stroke-width="2"/>
    <path id="Path_24843" data-name="Path 24843" d="M24.294,178.7H24.3" transform="translate(-3921.5 262.5)" fill="none" stroke="#404040" stroke-linecap="round" stroke-linejoin="round" stroke-width="2"/>
    <path id="Path_24844" data-name="Path 24844" d="M24.294,181.7H24.3" transform="translate(-3921.5 262.5)" fill="none" stroke="#404040" stroke-linecap="round" stroke-linejoin="round" stroke-width="2"/>
  </g>
</svg>
