<svg xmlns="http://www.w3.org/2000/svg" width="23.189" height="22" viewBox="0 0 23.189 22">
  <g id="inbox_outline" transform="translate(-2.4 -7.2)">
    <path id="Path_24730" data-name="Path 24730" d="M16.652,7.2H11.337a29.394,29.394,0,0,0-3.26.1,4.408,4.408,0,0,0-2.336.876,4.408,4.408,0,0,0-1.362,2.09,29.392,29.392,0,0,0-.809,3.16l-.989,4.45a7.641,7.641,0,0,0-.155.819,7.638,7.638,0,0,0-.027.834v1.705a32.6,32.6,0,0,0,.139,3.968,4.421,4.421,0,0,0,1.168,2.687,4.42,4.42,0,0,0,2.687,1.168,32.625,32.625,0,0,0,3.968.139h7.266a32.625,32.625,0,0,0,3.968-.139,4.421,4.421,0,0,0,2.687-1.168,4.421,4.421,0,0,0,1.168-2.687,32.625,32.625,0,0,0,.139-3.968V19.533a7.64,7.64,0,0,0-.027-.834,7.632,7.632,0,0,0-.155-.819l-.989-4.45a29.418,29.418,0,0,0-.809-3.16,4.409,4.409,0,0,0-1.362-2.09A4.408,4.408,0,0,0,19.912,7.3,29.4,29.4,0,0,0,16.652,7.2ZM6.858,9.572a2.664,2.664,0,0,1,1.434-.5,28.675,28.675,0,0,1,3.1-.092h5.2a28.676,28.676,0,0,1,3.1.092,2.664,2.664,0,0,1,1.434.5,2.665,2.665,0,0,1,.8,1.292,28.674,28.674,0,0,1,.762,3.008l.967,4.351c.024.109.044.2.06.274H20.081a3.043,3.043,0,0,0-2.722,1.682,1.259,1.259,0,0,1-1.126.7H11.757a1.259,1.259,0,0,1-1.126-.7A3.043,3.043,0,0,0,7.908,18.5H4.272c.016-.075.036-.165.06-.274L5.3,13.873a28.672,28.672,0,0,1,.762-3.008A2.663,2.663,0,0,1,6.858,9.572ZM4.184,20.281v.892a31.949,31.949,0,0,0,.123,3.8,2.681,2.681,0,0,0,.661,1.664,2.681,2.681,0,0,0,1.664.661,31.963,31.963,0,0,0,3.8.123h7.135a31.964,31.964,0,0,0,3.8-.123,2.681,2.681,0,0,0,1.664-.661,2.681,2.681,0,0,0,.661-1.664,31.964,31.964,0,0,0,.123-3.8v-.892H20.081a1.259,1.259,0,0,0-1.126.7,3.043,3.043,0,0,1-2.722,1.682H11.757a3.043,3.043,0,0,1-2.722-1.682,1.259,1.259,0,0,0-1.126-.7Z" transform="translate(0)" fill="#fff" fill-rule="evenodd"/>
  </g>
</svg>
