<?xml version="1.0" standalone="no"?>
<!DOCTYPE svg PUBLIC "-//W3C//DTD SVG 20010904//EN"
 "http://www.w3.org/TR/2001/REC-SVG-20010904/DTD/svg10.dtd">
<svg version="1.0" xmlns="http://www.w3.org/2000/svg"
 width="512.000000pt" height="512.000000pt" viewBox="0 0 512.000000 512.000000"
 preserveAspectRatio="xMidYMid meet">
<metadata>
Created by potrace 1.16, written by Peter Selinger 2001-2019
</metadata>
<g transform="translate(0.000000,512.000000) scale(0.100000,-0.100000)"
fill="#000000" stroke="none">
<path d="M2495 4960 c-10 -11 -20 -41 -23 -69 -4 -47 -6 -50 -46 -65 -63 -24
-111 -70 -145 -138 -26 -52 -31 -73 -31 -135 0 -121 39 -183 158 -250 l62 -35
0 -194 c0 -223 5 -213 -92 -164 -99 50 -158 32 -158 -49 0 -33 5 -44 33 -65
45 -35 116 -65 170 -72 l45 -6 5 -51 c8 -84 72 -122 131 -76 22 17 26 28 26
73 l0 52 65 28 c82 36 154 111 185 194 31 82 25 209 -12 274 -38 63 -93 109
-171 142 l-67 29 0 149 c0 81 3 148 8 148 4 0 25 -11 47 -25 52 -31 89 -32
120 0 29 28 32 70 9 103 -17 25 -79 59 -139 77 -39 12 -40 13 -45 65 -7 61
-26 80 -80 80 -24 0 -43 -7 -55 -20z m222 -820 c48 -71 12 -198 -69 -241 -17
-9 -18 1 -18 152 l0 161 32 -19 c18 -11 43 -34 55 -53z"/>
<path d="M1332 4677 c-27 -28 -29 -77 -4 -105 22 -26 447 -252 487 -259 46 -8
85 27 85 78 0 26 -6 45 -19 56 -11 9 -120 69 -243 134 -238 127 -269 136 -306
96z"/>
<path d="M3482 4581 c-123 -65 -232 -125 -243 -134 -13 -11 -19 -30 -19 -56 0
-51 39 -86 85 -78 40 7 465 233 488 259 41 48 4 128 -59 128 -17 0 -117 -47
-252 -119z"/>
<path d="M1217 4108 c-44 -34 -39 -115 9 -137 17 -7 115 -11 298 -11 254 0
275 1 297 19 33 27 33 95 0 122 -22 18 -43 19 -305 19 -210 0 -286 -3 -299
-12z"/>
<path d="M3299 4101 c-18 -14 -24 -29 -24 -61 0 -32 6 -47 24 -61 22 -18 43
-19 297 -19 183 0 281 4 298 11 49 23 53 114 6 139 -11 6 -135 10 -298 10
-260 0 -281 -1 -303 -19z"/>
<path d="M1570 3649 c-124 -66 -233 -128 -242 -136 -29 -26 -24 -87 8 -112 15
-12 38 -21 51 -21 27 0 454 221 491 253 50 46 15 138 -52 136 -19 0 -117 -46
-256 -120z"/>
<path d="M3242 3750 c-30 -29 -30 -89 1 -117 36 -32 463 -253 490 -253 13 0
36 9 51 21 32 25 37 86 9 112 -36 32 -475 257 -502 257 -15 0 -37 -9 -49 -20z"/>
<path d="M654 3309 c-26 -13 -134 -229 -134 -270 0 -35 39 -79 69 -79 45 0 68
22 109 105 l41 84 73 -21 c109 -30 262 -93 363 -149 142 -79 133 -65 100 -156
-82 -228 -306 -749 -456 -1060 -58 -123 -82 -163 -96 -163 -10 0 -71 18 -136
40 -121 41 -252 101 -356 165 l-59 35 58 148 c87 221 164 408 246 595 41 93
74 182 74 198 0 41 -31 69 -78 69 -50 0 -61 -13 -118 -140 -178 -401 -354
-850 -354 -904 0 -29 7 -41 43 -69 46 -38 164 -110 255 -156 138 -69 460 -169
502 -156 14 4 42 -22 120 -112 544 -627 1010 -1016 1360 -1134 130 -44 266
-51 369 -20 l70 21 63 -21 c152 -51 311 14 380 156 l21 43 46 -21 c65 -30 178
-29 247 2 94 41 163 135 179 242 7 47 7 47 53 53 141 19 248 128 267 272 7 48
11 54 66 94 32 23 96 81 142 129 82 85 83 86 109 71 81 -45 509 110 738 267
115 79 115 76 11 343 -145 373 -277 679 -450 1040 -115 241 -114 240 -219 222
-178 -30 -446 -141 -628 -260 l-91 -59 -97 62 c-253 164 -536 277 -783 314
-160 24 -217 12 -381 -82 l-93 -53 -77 9 c-109 12 -548 1 -657 -17 l-90 -15
-25 24 c-33 31 -168 114 -266 163 -109 55 -254 108 -376 137 -113 27 -123 28
-154 14z m2202 -359 c240 -57 522 -195 756 -370 86 -64 87 -66 119 -149 27
-70 38 -86 65 -99 40 -19 85 -4 103 34 16 37 15 42 -34 170 -25 65 -44 123
-42 128 13 33 277 163 423 209 144 45 128 48 174 -43 119 -236 275 -590 421
-955 l108 -270 -52 -32 c-91 -57 -248 -131 -357 -167 -173 -57 -147 -73 -257
159 -52 110 -135 292 -184 405 -50 113 -95 211 -102 217 -7 7 -27 15 -44 19
-27 5 -37 1 -63 -24 -16 -17 -30 -40 -30 -51 0 -23 125 -315 248 -576 l79
-170 -20 -30 c-24 -35 -223 -235 -234 -235 -5 0 -283 275 -618 610 -604 604
-611 610 -650 610 -81 0 -239 -96 -410 -247 -108 -96 -139 -113 -203 -113
-104 0 -191 80 -200 184 -3 44 1 65 22 112 55 119 155 255 285 384 134 133
224 201 367 276 l89 46 81 -6 c45 -4 117 -15 160 -26z m-827 -187 c-143 -147
-225 -261 -297 -411 -35 -72 -37 -83 -37 -172 0 -82 4 -103 27 -152 34 -73
103 -142 176 -176 50 -24 70 -27 157 -27 89 0 106 3 155 27 30 15 94 63 142
107 95 87 167 143 242 186 l48 28 578 -579 c502 -502 580 -584 589 -620 27
-102 -63 -198 -167 -179 -32 6 -91 60 -437 406 -383 382 -402 399 -438 399
-49 0 -77 -28 -77 -78 0 -36 15 -52 390 -427 424 -424 432 -434 411 -513 -13
-47 -64 -97 -110 -107 -70 -15 -87 -1 -471 381 -331 329 -369 364 -398 364
-44 0 -82 -38 -82 -82 0 -29 30 -62 294 -327 311 -313 316 -320 302 -396 -12
-64 -75 -115 -144 -115 -15 0 -48 13 -73 29 -24 16 -181 167 -349 335 -277
278 -308 306 -338 306 -44 0 -82 -38 -82 -82 0 -29 27 -60 270 -303 149 -149
270 -274 270 -278 0 -13 -135 -7 -194 8 -249 65 -565 294 -962 696 -199 201
-278 287 -421 456 l-94 111 39 79 c107 212 331 727 437 1003 26 69 54 130 61
136 11 9 142 31 279 47 17 2 111 5 210 6 l180 1 -86 -87z"/>
</g>
</svg>
