<svg xmlns="http://www.w3.org/2000/svg" width="21.5" height="21.5" viewBox="0 0 21.5 21.5">
  <g id="Group_37691" data-name="Group 37691" transform="translate(3904.25 -647.75)">
    <path id="Path_24864" data-name="Path 24864" d="M28,406a10,10,0,1,0-10-10A10,10,0,0,0,28,406Z" transform="translate(-3921.5 262.5)" fill="none" stroke="#404040" stroke-linecap="round" stroke-linejoin="round" stroke-width="1.5"/>
    <path id="Path_24865" data-name="Path 24865" d="M24,387h1a28.424,28.424,0,0,0,0,18H24" transform="translate(-3921.5 262.5)" fill="none" stroke="#404040" stroke-linecap="round" stroke-linejoin="round" stroke-width="1.5"/>
    <path id="Path_24866" data-name="Path 24866" d="M31,387a28.424,28.424,0,0,1,0,18" transform="translate(-3921.5 262.5)" fill="none" stroke="#404040" stroke-linecap="round" stroke-linejoin="round" stroke-width="1.5"/>
    <path id="Path_24867" data-name="Path 24867" d="M19,400v-1a28.423,28.423,0,0,0,18,0v1" transform="translate(-3921.5 262.5)" fill="none" stroke="#404040" stroke-linecap="round" stroke-linejoin="round" stroke-width="1.5"/>
    <path id="Path_24868" data-name="Path 24868" d="M19,393a28.423,28.423,0,0,1,18,0" transform="translate(-3921.5 262.5)" fill="none" stroke="#404040" stroke-linecap="round" stroke-linejoin="round" stroke-width="1.5"/>
  </g>
</svg>
