<svg xmlns="http://www.w3.org/2000/svg" width="20.111" height="21.5" viewBox="0 0 20.111 21.5">
  <g id="Group_37696" data-name="Group 37696" transform="translate(3902.84 -280.75)">
    <path id="Path_24821" data-name="Path 24821" d="M28,29a5,5,0,1,0-5-5A5,5,0,0,0,28,29Z" transform="translate(-3921.5 262.5)" fill="none" stroke="#404040" stroke-linecap="round" stroke-linejoin="round" stroke-width="1.5"/>
    <path id="Path_24822" data-name="Path 24822" d="M35.21,32.74l-3.54,3.54a1.232,1.232,0,0,0-.3.59l-.19,1.35a.635.635,0,0,0,.76.76l1.35-.19a1.189,1.189,0,0,0,.59-.3l3.54-3.54a1.563,1.563,0,1,0-2.21-2.21Z" transform="translate(-3921.5 262.5)" fill="none" stroke="#404040" stroke-linecap="round" stroke-linejoin="round" stroke-miterlimit="10" stroke-width="1.5"/>
    <path id="Path_24823" data-name="Path 24823" d="M34.7,33.25a3.185,3.185,0,0,0,2.22,2.22" transform="translate(-3921.5 262.5)" fill="none" stroke="#404040" stroke-linecap="round" stroke-linejoin="round" stroke-miterlimit="10" stroke-width="1.5"/>
    <path id="Path_24824" data-name="Path 24824" d="M19.41,39c0-3.87,3.85-7,8.59-7a10.3,10.3,0,0,1,2.97.43" transform="translate(-3921.5 262.5)" fill="none" stroke="#404040" stroke-linecap="round" stroke-linejoin="round" stroke-width="1.5"/>
  </g>
</svg>
