<svg xmlns="http://www.w3.org/2000/svg" width="50" height="50" viewBox="0 0 50 50">
  <g id="Group_37429" data-name="Group 37429" transform="translate(-365 -55)">
    <g id="Group_37430" data-name="Group 37430">
      <g id="Rectangle_17168" data-name="Rectangle 17168" transform="translate(365 55)" fill="#fff" stroke="#3f2317" stroke-width="1">
        <rect width="50" height="50" rx="25" stroke="none"/>
        <rect x="0.5" y="0.5" width="49" height="49" rx="24.5" fill="none"/>
      </g>
      <path id="Path_24818" data-name="Path 24818" d="M12.433,14.786l1.624-1.624-2.128-2.128-1.624,1.624v.784h1.344v1.344ZM18.594,4.7a.289.289,0,0,0-.462.014l-4.9,4.9a.317.317,0,1,0,.448.448l4.9-4.9A.289.289,0,0,0,18.594,4.7Zm1.12,8.317v2.66a4.039,4.039,0,0,1-4.032,4.032H4.032a3.884,3.884,0,0,1-2.849-1.183A3.884,3.884,0,0,1,0,15.682V4.032A3.884,3.884,0,0,1,1.183,1.183,3.884,3.884,0,0,1,4.032,0H15.682A3.851,3.851,0,0,1,17.32.35a.424.424,0,0,1,.252.322.436.436,0,0,1-.126.406l-.686.686a.409.409,0,0,1-.448.112,2.49,2.49,0,0,0-.63-.084H4.032A2.157,2.157,0,0,0,2.45,2.45a2.157,2.157,0,0,0-.658,1.582V15.682a2.157,2.157,0,0,0,.658,1.582,2.157,2.157,0,0,0,1.582.658H15.682a2.247,2.247,0,0,0,2.24-2.24V13.918a.419.419,0,0,1,.126-.308l.9-.9a.42.42,0,0,1,.49-.1A.406.406,0,0,1,19.714,13.021ZM18.37,2.688,22.4,6.721,12.993,16.13H8.961V12.1Zm6.217,1.848L23.3,5.825,19.266,1.792,20.554.5a1.352,1.352,0,0,1,1.9,0l2.128,2.128a1.3,1.3,0,0,1,.392.952A1.3,1.3,0,0,1,24.587,4.536Z" transform="translate(378 70)" fill="#3f2317"/>
    </g>
  </g>
</svg>
