<?xml version="1.0" standalone="no"?>
<!DOCTYPE svg PUBLIC "-//W3C//DTD SVG 20010904//EN"
 "http://www.w3.org/TR/2001/REC-SVG-20010904/DTD/svg10.dtd">
<svg version="1.0" xmlns="http://www.w3.org/2000/svg"
 width="512.000000pt" height="512.000000pt" viewBox="0 0 512.000000 512.000000"
 preserveAspectRatio="xMidYMid meet">

<g transform="translate(0.000000,512.000000) scale(0.100000,-0.100000)"
fill="#000000" stroke="none">
<path d="M2345 4785 c-323 -53 -611 -204 -830 -437 -295 -314 -437 -746 -381
-1163 8 -66 12 -121 8 -123 -35 -12 -223 -134 -288 -185 -354 -286 -551 -723
-531 -1177 17 -373 158 -692 421 -956 261 -261 585 -404 952 -421 267 -13 546
55 777 187 l89 51 76 -45 c348 -203 782 -250 1164 -125 222 72 406 185 574
353 204 205 335 445 395 726 30 140 33 420 6 550 -91 435 -353 798 -723 1000
-43 24 -80 44 -81 45 -1 1 4 50 12 111 61 455 -99 908 -432 1225 -198 188
-435 313 -701 370 -129 27 -381 34 -507 14z m474 -335 c416 -102 728 -416 834
-839 31 -125 31 -378 -1 -504 -105 -422 -417 -734 -839 -839 -127 -32 -379
-32 -506 0 -425 106 -733 415 -840 841 -18 72 -21 114 -21 256 1 151 4 181 27
268 30 111 96 258 161 355 169 255 451 432 764 482 93 15 325 4 421 -20z
m-1540 -1747 c13 -27 47 -84 76 -128 217 -327 538 -542 935 -626 124 -26 391
-32 499 -10 51 10 65 10 72 0 4 -7 11 -55 14 -106 24 -313 -108 -649 -341
-873 -223 -214 -472 -314 -779 -314 -164 -1 -265 17 -400 71 -554 219 -843
826 -660 1388 86 261 283 502 520 633 33 18 40 14 64 -35z m2670 8 c265 -157
465 -458 516 -776 98 -605 -319 -1181 -926 -1280 -216 -35 -447 -4 -638 86
l-83 39 51 62 c269 330 382 769 306 1185 -5 26 -1 31 77 73 234 127 439 332
568 567 25 46 49 83 54 83 6 0 39 -18 75 -39z"/>
</g>
</svg>
