<svg xmlns="http://www.w3.org/2000/svg" width="30.595" height="28.025" viewBox="0 0 30.595 28.025">
  <path id="Path_24732" data-name="Path 24732" d="M30,13.161a13.188,13.188,0,0,1-2.224,11.954,33.834,33.834,0,0,1-5.527,5.838C20.429,32.646,16.36,36,15.281,36.088c-.953-.182-2.023-1.26-2.78-1.815C8.248,31.04,3.67,27.108,1.348,22.809-.6,18.682-.6,13.578,2.427,10.414a8.954,8.954,0,0,1,12.853.85,8.694,8.694,0,0,1,2.976-2.469A8.955,8.955,0,0,1,30,13.161Z" transform="translate(0 -8.063)" fill="#fff"/>
</svg>
