<svg xmlns="http://www.w3.org/2000/svg" width="22.208" height="21.838" viewBox="0 0 22.208 21.838">
  <g id="home_solid" transform="translate(0 -3.19)">
    <path id="Path_24731" data-name="Path 24731" d="M13.389,4.192a4.886,4.886,0,0,0-2.285-1,4.886,4.886,0,0,0-2.285,1L4.313,6.9C2.206,8.159,1.153,8.791.577,9.809S0,12.056,0,14.512v4.594a11.131,11.131,0,0,0,.151,2.63,4.442,4.442,0,0,0,3.141,3.141,11.13,11.13,0,0,0,2.63.151,5.561,5.561,0,0,0,1.315-.076,2.221,2.221,0,0,0,1.57-1.57,5.565,5.565,0,0,0,.076-1.315v-1.48c0-1.047,0-1.57.325-1.9s.849-.325,1.9-.325,1.57,0,1.9.325.325.849.325,1.9v1.48a5.569,5.569,0,0,0,.076,1.315,2.221,2.221,0,0,0,1.57,1.57,5.561,5.561,0,0,0,1.315.076,11.13,11.13,0,0,0,2.63-.151,4.442,4.442,0,0,0,3.141-3.141,11.13,11.13,0,0,0,.151-2.63V14.512c0-2.457,0-3.685-.576-4.7S20,8.159,17.895,6.9Z" transform="translate(0 0)" fill="gold"/>
  </g>
</svg>
