<svg xmlns="http://www.w3.org/2000/svg" width="22.278" height="28.355" viewBox="0 0 22.278 28.355">
  <g id="location-filled" transform="translate(-30 -12)">
    <path id="Path_24815" data-name="Path 24815" d="M41.139,12A11.152,11.152,0,0,0,30,23.139a11.027,11.027,0,0,0,2.244,6.684s.3.4.353.458l8.542,10.074,8.546-10.079c.045-.054.349-.453.349-.453v0a11.023,11.023,0,0,0,2.243-6.681A11.152,11.152,0,0,0,41.139,12Zm0,15.19a4.051,4.051,0,1,1,4.051-4.051,4.051,4.051,0,0,1-4.051,4.051Z" transform="translate(0)" fill="#3f2317"/>
    <circle id="IconifyId-17e9079768a-d1151c-107" cx="4.075" cy="4.075" r="4.075" transform="translate(37.064 18.842)" fill="none"/>
  </g>
</svg>
