<?xml version="1.0" standalone="no"?>
<!DOCTYPE svg PUBLIC "-//W3C//DTD SVG 20010904//EN"
 "http://www.w3.org/TR/2001/REC-SVG-20010904/DTD/svg10.dtd">
<svg version="1.0" xmlns="http://www.w3.org/2000/svg"
 width="512.000000pt" height="512.000000pt" viewBox="0 0 512.000000 512.000000"
 preserveAspectRatio="xMidYMid meet">

<g transform="translate(0.000000,512.000000) scale(0.100000,-0.100000)"
fill="#000000" stroke="none">
<path d="M2330 5110 c-494 -48 -950 -230 -1350 -538 -195 -150 -448 -432 -594
-662 -63 -99 -186 -351 -230 -471 -49 -134 -102 -340 -128 -499 -31 -195 -31
-565 0 -760 45 -276 116 -498 237 -745 132 -269 269 -460 489 -681 221 -220
412 -357 681 -489 247 -121 469 -192 745 -237 195 -31 565 -31 760 0 276 45
498 116 745 237 269 132 460 269 681 489 220 221 357 412 489 681 88 179 132
296 180 476 63 240 78 371 78 649 0 278 -15 409 -78 649 -48 180 -92 297 -180
476 -132 269 -269 460 -489 681 -221 220 -412 357 -681 489 -246 121 -474 193
-740 235 -147 23 -475 34 -615 20z m-944 -2171 c250 -46 387 -311 280 -544
-69 -151 -241 -242 -407 -216 -254 41 -399 318 -287 550 49 102 167 192 274
211 70 11 74 11 140 -1z m1256 -4 c150 -31 263 -147 295 -301 13 -66 13 -82 0
-148 -32 -157 -146 -271 -303 -303 -66 -13 -82 -13 -148 0 -157 32 -271 146
-303 303 -13 66 -13 82 0 148 31 151 145 269 290 301 80 17 89 17 169 0z
m1289 -10 c171 -61 282 -249 250 -427 -46 -264 -328 -401 -564 -276 -218 117
-268 417 -98 600 100 109 273 152 412 103z"/>
</g>
</svg>
