<svg xmlns="http://www.w3.org/2000/svg" width="23.836" height="26" viewBox="0 0 23.836 26">
  <g id="notification-line" transform="translate(-16.256 -9.461)">
    <path id="Path_24728" data-name="Path 24728" d="M39.821,30.3a11.518,11.518,0,0,1-2.008-2.344,10.1,10.1,0,0,1-1.08-3.847V20.159a8.647,8.647,0,0,0-7.551-8.6V10.529a1.068,1.068,0,1,0-2.136,0v1.048a8.647,8.647,0,0,0-7.463,8.583V24.11a10.1,10.1,0,0,1-1.08,3.847A11.518,11.518,0,0,1,16.528,30.3a.8.8,0,0,0-.272.6v1.088a.8.8,0,0,0,.8.8H39.293a.8.8,0,0,0,.8-.8V30.9A.8.8,0,0,0,39.821,30.3Zm-21.9.888a12.934,12.934,0,0,0,1.952-2.4,11.39,11.39,0,0,0,1.32-4.679V20.159a6.991,6.991,0,1,1,13.974,0V24.11a11.39,11.39,0,0,0,1.32,4.679,12.934,12.934,0,0,0,1.952,2.4Z" fill="#fff"/>
    <path id="Path_24729" data-name="Path 24729" d="M83.8,172.384a2.136,2.136,0,0,0,2.064-1.824H81.656A2.136,2.136,0,0,0,83.8,172.384Z" transform="translate(-55.585 -136.923)" fill="#fff"/>
  </g>
</svg>
