<svg xmlns="http://www.w3.org/2000/svg" width="21.5" height="21.5" viewBox="0 0 21.5 21.5">
  <g id="Group_37692" data-name="Group 37692" transform="translate(3904.25 -575.75)">
    <path id="Path_24855" data-name="Path 24855" d="M22,322v-2c0-3.31,1-6,6-6s6,2.69,6,6v2" transform="translate(-3921.5 262.5)" fill="none" stroke="#404040" stroke-linecap="round" stroke-linejoin="round" stroke-width="1.5"/>
    <path id="Path_24856" data-name="Path 24856" d="M33,334H23c-4,0-5-1-5-5v-2c0-4,1-5,5-5H33c4,0,5,1,5,5v2C38,333,37,334,33,334Z" transform="translate(-3921.5 262.5)" fill="none" stroke="#404040" stroke-linecap="round" stroke-linejoin="round" stroke-width="1.5"/>
    <path id="Path_24857" data-name="Path 24857" d="M32,328h.009" transform="translate(-3921.5 262.5)" fill="none" stroke="#404040" stroke-linecap="round" stroke-linejoin="round" stroke-width="2"/>
    <path id="Path_24858" data-name="Path 24858" d="M28,328H28" transform="translate(-3921.5 262.5)" fill="none" stroke="#404040" stroke-linecap="round" stroke-linejoin="round" stroke-width="2"/>
    <path id="Path_24859" data-name="Path 24859" d="M23.994,328H24" transform="translate(-3921.5 262.5)" fill="none" stroke="#404040" stroke-linecap="round" stroke-linejoin="round" stroke-width="2"/>
  </g>
</svg>
