<svg xmlns="http://www.w3.org/2000/svg" width="21.5" height="21.5" viewBox="0 0 21.5 21.5">
  <g id="Group_37693" data-name="Group 37693" transform="translate(3904.25 -502.75)">
    <path id="Path_24849" data-name="Path 24849" d="M37.97,257.33a2.545,2.545,0,0,1-.25,1.09,4.126,4.126,0,0,1-.68,1.02,4.508,4.508,0,0,1-1.64,1.18,5.022,5.022,0,0,1-1.95.38,8.333,8.333,0,0,1-3.26-.73,17.564,17.564,0,0,1-3.44-1.98,28.752,28.752,0,0,1-3.28-2.8,28.415,28.415,0,0,1-2.79-3.27,17.828,17.828,0,0,1-1.96-3.41,8.423,8.423,0,0,1-.72-3.27,5.173,5.173,0,0,1,.36-1.93,4.6,4.6,0,0,1,1.15-1.67,2.93,2.93,0,0,1,2.08-.94,1.879,1.879,0,0,1,.81.18,1.63,1.63,0,0,1,.67.56l2.32,3.27a3.422,3.422,0,0,1,.4.7,1.581,1.581,0,0,1,.14.61,1.357,1.357,0,0,1-.21.71,3.4,3.4,0,0,1-.56.71l-.76.79a.535.535,0,0,0-.16.4.908.908,0,0,0,.03.23c.03.08.06.14.08.2a8.3,8.3,0,0,0,.93,1.28c.45.52.93,1.05,1.45,1.58.54.53,1.06,1.02,1.59,1.47a7.675,7.675,0,0,0,1.29.92c.05.02.11.05.18.08a.69.69,0,0,0,.25.04.55.55,0,0,0,.41-.17l.76-.75a3.068,3.068,0,0,1,.72-.56,1.332,1.332,0,0,1,.71-.21,1.6,1.6,0,0,1,.61.13,3.867,3.867,0,0,1,.7.39l3.31,2.35a1.517,1.517,0,0,1,.55.64A2.052,2.052,0,0,1,37.97,257.33Z" transform="translate(-3921.5 262.5)" fill="none" stroke="#404040" stroke-miterlimit="10" stroke-width="1.5"/>
    <path id="Path_24850" data-name="Path 24850" d="M34.5,248a3.965,3.965,0,0,0-1.17-2.27A3.416,3.416,0,0,0,31,244.5" transform="translate(-3921.5 262.5)" fill="none" stroke="#404040" stroke-linecap="round" stroke-linejoin="round" stroke-width="1.5"/>
    <path id="Path_24851" data-name="Path 24851" d="M38,248a7,7,0,0,0-7-7" transform="translate(-3921.5 262.5)" fill="none" stroke="#404040" stroke-linecap="round" stroke-linejoin="round" stroke-width="1.5"/>
  </g>
</svg>
