<svg id="avatar" xmlns="http://www.w3.org/2000/svg" width="19.432" height="22.965" viewBox="0 0 19.432 22.965">
  <g id="Group_36103" data-name="Group 36103" transform="translate(0 0)">
    <path id="Path_24727" data-name="Path 24727" d="M52.563,10.649a5.889,5.889,0,1,0-6.924,0,9.732,9.732,0,0,0-6.254,9.078,3.242,3.242,0,0,0,3.239,3.239H55.579a3.242,3.242,0,0,0,3.239-3.239A9.732,9.732,0,0,0,52.563,10.649Zm-7.584-4.76A4.122,4.122,0,1,1,49.1,10.011,4.127,4.127,0,0,1,44.979,5.889Zm10.6,15.31H42.624a1.474,1.474,0,0,1-1.472-1.472,7.95,7.95,0,1,1,15.9,0A1.474,1.474,0,0,1,55.579,21.2Z" transform="translate(-39.385 0)" fill="#fff"/>
  </g>
</svg>
