<svg xmlns="http://www.w3.org/2000/svg" width="29.848" height="28.505" viewBox="0 0 29.848 28.505">
  <path id="star_24dp_5F6368_FILL1_wght400_GRAD0_opsz24" d="M152.462-793.119l-7.234,4.358a1.583,1.583,0,0,1-1,.261,1.684,1.684,0,0,1-.915-.349,2.09,2.09,0,0,1-.61-.763,1.524,1.524,0,0,1-.087-1.024l1.917-8.236-6.406-5.534a1.671,1.671,0,0,1-.545-.893,1.735,1.735,0,0,1,.065-.98,1.868,1.868,0,0,1,.523-.784,1.812,1.812,0,0,1,.959-.392l8.454-.741,3.268-7.757a1.565,1.565,0,0,1,.675-.784,1.867,1.867,0,0,1,.937-.261,1.867,1.867,0,0,1,.937.261,1.565,1.565,0,0,1,.675.784l3.268,7.757,8.454.741a1.812,1.812,0,0,1,.959.392,1.867,1.867,0,0,1,.523.784,1.735,1.735,0,0,1,.065.98,1.671,1.671,0,0,1-.545.893l-6.406,5.534,1.917,8.236a1.524,1.524,0,0,1-.087,1.024,2.09,2.09,0,0,1-.61.763,1.685,1.685,0,0,1-.915.349,1.583,1.583,0,0,1-1-.261Z" transform="translate(-137.538 817)" fill="gold"/>
</svg>
