<svg id="send" xmlns="http://www.w3.org/2000/svg" width="25.377" height="25.377" viewBox="0 0 25.377 25.377">
  <path id="Path_24811" data-name="Path 24811" d="M24.969.156a.885.885,0,0,1,.382.906L21.727,22.813a.893.893,0,0,1-.453.637.869.869,0,0,1-.439.113.953.953,0,0,1-.34-.071l-6.415-2.62-3.427,4.178a.834.834,0,0,1-.694.326.766.766,0,0,1-.312-.057.906.906,0,0,1-.595-.85V19.528l12.235-15L6.149,17.631.556,15.336a.9.9,0,0,1-.113-1.614L24.007.127A.866.866,0,0,1,24.46,0,.879.879,0,0,1,24.969.156Z" transform="translate(0.012)" fill="#fff"/>
</svg>
