<svg xmlns="http://www.w3.org/2000/svg" width="22.83" height="23.448" viewBox="0 0 22.83 23.448">
  <g id="settings" transform="translate(-14.477 -12.238)">
    <path id="Path_24814" data-name="Path 24814" d="M35.125,24.6V23.315L36.738,21.9a1.68,1.68,0,0,0,.319-2.142L35.075,16.4a1.695,1.695,0,0,0-1.99-.756l-2.041.689a9.532,9.532,0,0,0-1.1-.63l-.428-2.116a1.68,1.68,0,0,0-1.68-1.352h-3.93a1.68,1.68,0,0,0-1.68,1.352L21.8,15.707a9.641,9.641,0,0,0-1.109.63l-2-.722a1.849,1.849,0,0,0-1.99.789l-1.982,3.359a1.68,1.68,0,0,0,.344,2.108l1.587,1.453v1.285l-1.587,1.411a1.68,1.68,0,0,0-.344,2.142L16.7,31.52a1.695,1.695,0,0,0,1.99.756l2.041-.689a9.532,9.532,0,0,0,1.1.63l.428,2.116a1.68,1.68,0,0,0,1.68,1.352H27.9a1.68,1.68,0,0,0,1.68-1.352l.428-2.116a9.641,9.641,0,0,0,1.109-.63l2.032.689a1.695,1.695,0,0,0,1.99-.756l1.915-3.359a1.68,1.68,0,0,0-.344-2.108Zm-1.5,6.08-2.881-.974a7.441,7.441,0,0,1-2.276,1.319l-.6,3.015H23.905l-.6-2.981a7.861,7.861,0,0,1-2.267-1.319l-2.889.941-1.982-3.359,2.284-2.016a7.474,7.474,0,0,1,0-2.629L16.171,20.6l1.982-3.359,2.881.974A7.441,7.441,0,0,1,23.309,16.9l.6-3.015h3.964l.6,2.981a7.861,7.861,0,0,1,2.268,1.319l2.889-.941L35.6,20.6,33.32,22.618a7.474,7.474,0,0,1,0,2.629L35.6,27.321Z"/>
    <path id="Path_24815" data-name="Path 24815" d="M65.039,70.078a5.039,5.039,0,1,1,5.039-5.039,4.989,4.989,0,0,1-5.039,5.039Zm0-8.4a3.284,3.284,0,1,0,2.4.961A3.284,3.284,0,0,0,65.039,61.68Z" transform="translate(-39.152 -41.077)"/>
  </g>
</svg>
