<svg xmlns="http://www.w3.org/2000/svg" width="21.968" height="18.05" viewBox="0 0 21.968 18.05">
  <g id="Group_37713" data-name="Group 37713" transform="translate(3877.484 -420.47)">
    <g id="Group_37712" data-name="Group 37712" transform="translate(-4181.285 400.5)">
      <path id="Path_24772" data-name="Path 24772" d="M318.58,29A3.58,3.58,0,1,1,315,25.42,3.576,3.576,0,0,1,318.58,29Z" fill="none" stroke="#030303" stroke-linecap="round" stroke-linejoin="round" stroke-width="1.5"/>
      <path id="Path_24773" data-name="Path 24773" d="M315,37.27c3.53,0,6.82-2.08,9.11-5.68a5.326,5.326,0,0,0,0-5.19c-2.29-3.6-5.58-5.68-9.11-5.68s-6.82,2.08-9.11,5.68a5.326,5.326,0,0,0,0,5.19C308.18,35.19,311.47,37.27,315,37.27Z" fill="none" stroke="#030303" stroke-linecap="round" stroke-linejoin="round" stroke-width="1.5"/>
    </g>
    <line id="Line_17" data-name="Line 17" x1="20" y2="16" transform="translate(-3876.5 421.5)" fill="none" stroke="#030303" stroke-linecap="round" stroke-width="1.4"/>
  </g>
</svg>
