<?xml version="1.0" encoding="UTF-8"?>
<svg xmlns="http://www.w3.org/2000/svg" id="Layer_1" data-name="Layer 1" viewBox="0 0 24 24">
  <path d="M12.5,13h-.5v-4.04c.017-.813-1.074-1.181-1.565-.502l-.964,1.327-1.157-1.362c-.452-.444-1.214-.409-1.729,.109l-1.06,1.258c-.462-.614-.968-1.281-1.114-1.467-.476-.518-1.454-.042-1.411,.654v4.024h-.5c-1.379,0-2.5,1.122-2.5,2.5v5c0,1.93,1.57,3.5,3.5,3.5H11.5c1.93,0,3.5-1.57,3.5-3.5v-5c0-1.378-1.121-2.5-2.5-2.5Zm-8.5-3.571c.223,.293,1.104,1.463,1.104,1.463,.186,.256,.563,.258,.782,.022l1.437-1.708c.116-.116,.255-.107,.259-.104l1.538,1.814c.199,.256,.605,.227,.786-.029l1.095-1.507v3.62H4v-3.571Zm4,4.571v9h-1V14h1ZM1,20.5v-5c0-.827,.673-1.5,1.5-1.5h3.5v9H3.5c-1.379,0-2.5-1.122-2.5-2.5Zm13,0c0,1.378-1.121,2.5-2.5,2.5h-2.5V14h3.5c.827,0,1.5,.673,1.5,1.5v5Zm3.745-7.076c.342,.743,1.31,1.066,2.031,.679l.831-.425c1.464-.707,2.083-2.473,1.378-3.945l-.462-.941c.233,.112,.479,.19,.741,.19,.523,0,1.022-.234,1.35-.641,.604-.742,.493-1.839-.25-2.444-.639-.521-1.435-.666-2.144-.672,.467-.628,.866-1.424,.791-2.309-.057-.961-.981-1.74-1.936-1.637-.781,.065-1.397,.628-1.58,1.348l-.448-.913c-.706-1.469-2.476-2.09-3.955-1.38l-.87,.445c-.722,.369-1.021,1.263-.665,1.992l5.189,10.651Zm5.093-5.713c-.245,.313-.733,.363-1.037,.106-.259-.21-.833-.917-1.319-1.548,.652-.096,1.608-.117,2.25,.405,.315,.257,.363,.722,.106,1.038Zm-2.681-5.435c.423-.043,.83,.297,.856,.724,.074,.884-.6,1.729-1.119,2.241-.193-.753-.428-1.724-.46-2.109-.036-.436,.288-.819,.723-.856Zm-6.481-.605l.859-.439c.952-.463,2.141-.064,2.61,.921l3.939,8.019c.467,.972,.055,2.143-.917,2.609-.003,.002-.007,.003-.011,.005l-.836,.427c-.242,.13-.563,.021-.678-.227L13.454,2.335c-.118-.243-.019-.542,.222-.665Zm-6.676,2.753c.004-.215,.146-.404,.351-.468l1.256-.393,.419-1.257c.136-.408,.812-.408,.948,0l.421,1.263,1.263,.421c.447,.132,.447,.816,0,.948l-1.263,.421-.421,1.263c-.132,.447-.816,.447-.948,0l-.423-1.269-1.27-.449c-.203-.072-.337-.265-.333-.48ZM0,2.424c.004-.215,.146-.404,.351-.468l1.256-.393,.419-1.257c.136-.408,.812-.408,.948,0l.421,1.263,1.263,.421c.447,.132,.447,.816,0,.948l-1.263,.421-.421,1.263c-.132,.447-.816,.447-.948,0l-.423-1.269-1.27-.449C.13,2.833-.004,2.64,0,2.424ZM23.686,19.536l-1.943-.777-.778-1.944c-.15-.38-.777-.38-.928,0l-.776,1.939-1.937,.733c-.415,.142-.427,.772-.018,.929l1.95,.822,.78,1.949c.148,.412,.78,.412,.928,0l.778-1.944,1.943-.777c.412-.149,.412-.78,0-.929Zm-2.514,.857c-.127,.051-.228,.151-.278,.279l-.394,.982-.394-.982c-.049-.125-.146-.223-.27-.275l-.99-.417,.973-.368c.131-.05,.235-.152,.287-.282l.394-.982,.394,.982c.051,.127,.151,.228,.278,.279l.981,.393-.981,.393Z"/>
</svg>
